<?xml version="1.0" encoding="utf-8"?>
<!-- Generator: Adobe Illustrator 18.0.0, SVG Export Plug-In . SVG Version: 6.00 Build 0)  -->
<!DOCTYPE svg PUBLIC "-//W3C//DTD SVG 1.1//EN" "http://www.w3.org/Graphics/SVG/1.1/DTD/svg11.dtd">
<svg version="1.1" id="D" xmlns="http://www.w3.org/2000/svg" xmlns:xlink="http://www.w3.org/1999/xlink" x="0px" y="0px"
	 width="300px" height="200px" viewBox="0 0 300 200" enable-background="new 0 0 300 200" xml:space="preserve">
<g>
	<g>
		<g>
			<path fill="#FFD500" d="M210,52.8c2.8,0,5-2.3,5-5.1V23.5c0-2.8-2.2-5.1-5-5.1c-2.8,0-5,2.3-5,5.1v24.2
				C205,50.5,207.2,52.8,210,52.8z"/>
			<path fill="#FFD500" d="M210,147.2c-2.8,0-5,2.3-5,5.1v24.2c0,2.8,2.2,5.1,5,5.1c2.8,0,5-2.3,5-5.1v-24.2
				C215,149.5,212.8,147.2,210,147.2z"/>
			<path fill="#FFD500" d="M286.9,95h-24.2c-2.8,0-5.1,2.2-5.1,5c0,2.8,2.3,5,5.1,5h24.2c2.8,0,5.1-2.2,5.1-5
				C291.9,97.2,289.7,95,286.9,95z"/>
		</g>
		<g>
			<path fill="#FFD500" d="M233.9,140.9c-2.4,1.4-3.3,4.5-1.9,6.9l12.1,21c1.4,2.4,4.5,3.3,6.9,1.9c2.4-1.4,3.3-4.5,1.9-6.9
				l-12.1-21C239.5,140.3,236.3,139.5,233.9,140.9z"/>
			<path fill="#FFD500" d="M274.1,57.3l-21,12.1c-2.4,1.4-3.3,4.5-1.9,6.9c1.4,2.4,4.5,3.3,6.9,1.9l21-12.1c2.4-1.4,3.3-4.5,1.9-6.9
				C279.6,56.8,276.5,55.9,274.1,57.3z"/>
		</g>
		<g>
			<path fill="#FFD500" d="M251.2,123.6c-1.4,2.4-0.6,5.5,1.9,6.9l21,12.1c2.4,1.4,5.6,0.6,6.9-1.9c1.4-2.4,0.6-5.5-1.9-6.9
				l-21-12.1C255.7,120.4,252.6,121.2,251.2,123.6z"/>
			<path fill="#FFD500" d="M244.2,31.2l-12.1,21c-1.4,2.4-0.6,5.5,1.9,6.9c2.4,1.4,5.5,0.6,6.9-1.9l12.1-21c1.4-2.4,0.6-5.5-1.9-6.9
				C248.7,27.9,245.6,28.8,244.2,31.2z"/>
		</g>
	</g>
	<path fill="#B2B3B8" d="M124,26.2c27.4,0,50.4,20.5,53.5,47.8l1.6,14.4l13.8-4.5c2.2-0.7,4.5-1.1,6.9-1.1
		c13.1,0,23.8,11.3,23.8,25.2c0,13.9-10.7,25.2-23.8,25.2L44.4,133c-13.5-0.3-24.5-11.5-24.5-25c0-13.8,11.2-25,25-25
		c3.2,0,6.3,0.6,9.2,1.8l14.7,5.9l1.5-15.8C73,47.1,96,26.2,124,26.2 M124,14.4c-34.1,0-62.2,26.1-65.4,59.4
		c-4.3-1.7-8.9-2.6-13.7-2.6C24.6,71.1,8.5,87.7,8.5,108c0,20.1,16.5,36.4,36.5,36.8v0l155.1,0.1c19.7,0,35.5-16.6,35.5-37
		c0-20.4-16.1-37-35.8-37c-3.6,0-7.2,0.6-10.6,1.7C185.6,39.9,157.7,14.4,124,14.4L124,14.4z"/>
	<path fill="#FFD500" d="M178.5,145l-10.8,18.8c-1.4,2.4-0.6,5.5,1.9,6.9c2.4,1.4,5.5,0.6,6.9-1.9l12.1-21c0.5-0.9,0.6-1.9,0.6-2.8
		L178.5,145z"/>
	<g>
		<path fill="#FFD500" d="M210.3,58.1c-8.3,0-16.1,2.5-22.6,6.7c0.6,2.6,1.2,5.2,1.5,8c3.4-1.1,6.9-1.7,10.5-1.7
			c19.7,0,35.7,16.6,35.7,37c0,15-8.7,27.9-21.1,33.7c21.3-2,38-19.9,38-41.7C252.2,76.9,233.4,58.1,210.3,58.1z"/>
	</g>
	<path fill="#FFD500" d="M186.2,59.3c0.2-0.1,0.4-0.1,0.5-0.2c2.4-1.4,3.3-4.5,1.9-6.9l-12.1-21c-1.4-2.4-4.5-3.3-6.9-1.9
		c-0.8,0.5-1.3,1.1-1.8,1.9C176.1,38.7,182.5,48.4,186.2,59.3z"/>
</g>
</svg>
